<?xml version="1.0" encoding="UTF-8" standalone="no"?>
<!-- Created with Inkscape (http://www.inkscape.org/) -->

<svg
   width="210mm"
   height="297mm"
   viewBox="0 0 210 297"
   version="1.1"
   id="svg5"
   inkscape:version="1.1.1 (3bf5ae0d25, 2021-09-20)"
   sodipodi:docname="rysunek.svg"
   xmlns:inkscape="http://www.inkscape.org/namespaces/inkscape"
   xmlns:sodipodi="http://sodipodi.sourceforge.net/DTD/sodipodi-0.dtd"
   xmlns="http://www.w3.org/2000/svg"
   xmlns:svg="http://www.w3.org/2000/svg">
  <sodipodi:namedview
     id="namedview7"
     pagecolor="#ffffff"
     bordercolor="#666666"
     borderopacity="1.0"
     inkscape:pageshadow="2"
     inkscape:pageopacity="0.0"
     inkscape:pagecheckerboard="0"
     inkscape:document-units="mm"
     showgrid="false"
     inkscape:zoom="0.37059484"
     inkscape:cx="37.777105"
     inkscape:cy="785.22411"
     inkscape:window-width="1335"
     inkscape:window-height="1040"
     inkscape:window-x="211"
     inkscape:window-y="287"
     inkscape:window-maximized="0"
     inkscape:current-layer="layer1" />
  <defs
     id="defs2" />
  <g
     inkscape:label="Warstwa 1"
     inkscape:groupmode="layer"
     id="layer1">
    <path
       style="fill:none;stroke:#000000;stroke-width:0.264583px;stroke-linecap:butt;stroke-linejoin:miter;stroke-opacity:1"
       d="M 0,0.71394229 129.22356,65.682693"
       id="path320" />
    <path
       style="fill:none;stroke:#000000;stroke-width:0.264583px;stroke-linecap:butt;stroke-linejoin:miter;stroke-opacity:1"
       d="M 209.89904,157.06731 129.22356,65.682693"
       id="path322" />
    <path
       style="fill:none;stroke:#000000;stroke-width:0.264583px;stroke-linecap:butt;stroke-linejoin:miter;stroke-opacity:1"
       d="M 210.25601,295.92907 92.455528,222.03606"
       id="path324" />
    <path
       style="fill:none;stroke:#000000;stroke-width:0.264583px;stroke-linecap:butt;stroke-linejoin:miter;stroke-opacity:1"
       d="M 92.455528,222.03606 -0.71394229,140.28966"
       id="path326" />
    <path
       style="fill:none;stroke:#000000;stroke-width:0.264583px;stroke-linecap:butt;stroke-linejoin:miter;stroke-opacity:1"
       d="M 0.71394229,0.71394229 -0.71394229,140.28966"
       id="path2643" />
    <path
       style="fill:none;stroke:#000000;stroke-width:0.264583px;stroke-linecap:butt;stroke-linejoin:miter;stroke-opacity:1"
       d="M -0.71394229,140.28966 0.35697115,295.92907"
       id="path2645" />
    <path
       style="fill:none;stroke:#000000;stroke-width:0.264583px;stroke-linecap:butt;stroke-linejoin:miter;stroke-opacity:1"
       d="M 0.35697115,295.92907 H 210.25601 l -0.35697,-138.86176"
       id="path2647" />
    <path
       style="fill:none;stroke:#000000;stroke-width:0.264583px;stroke-linecap:butt;stroke-linejoin:miter;stroke-opacity:1"
       d="M 209.89904,157.06731 210.25601,1.0709134 0.71394231,1.7848558"
       id="path2649" />
    <path
       style="fill:#502d16;stroke-width:1.34918"
       d="M 2.1754386,1046.6282 C 0.73724705,926.54096 -1.6463056,535.47277 -0.94432198,534.77079 -0.57855973,534.40503 78.121942,602.90182 173.94568,686.98588 l 174.22498,152.88011 218.86402,137.36236 c 120.37521,75.54925 219.77472,137.91365 220.88779,138.58745 1.21565,0.7359 -155.0924,1.2415 -391.43949,1.2661 l -393.4632804,0.041 z"
       id="path2688"
       transform="scale(0.26458333)" />
    <path
       style="fill:#502d16;stroke-width:1.34918"
       d="M 571.54567,976.91706 350.44673,838.23367 174.54878,683.91702 -1.3491823,529.60036 l 0.036458,-18.9117 C -1.2823813,494.94865 3.8526561,9.4716101 3.9997917,8.4323895 4.2625718,6.5763716 39.235366,23.834621 247.78782,128.73604 l 239.84389,120.64094 152.00374,172.18486 152.00374,172.18484 0.92937,191.86796 c 0.51115,105.52737 0.73736,222.94446 0.5027,260.92686 l -0.42665,69.059 z"
       id="path2727"
       transform="scale(0.26458333)" />
    <path
       style="fill:#502d16;stroke-width:1.34918"
       d="M 640.37624,418.33009 489.45707,247.33952 252.29375,128.0546 15.130419,8.769685 94.924764,7.9358759 C 138.81165,7.4772808 313.90413,6.6724038 484.01916,6.1472601 L 793.3192,5.1924535 793.12225,178.32723 c -0.10834,95.22411 -0.56368,226.65297 -1.01189,292.06409 l -0.81493,118.92933 z"
       id="path2766"
       transform="scale(0.26458333)" />
    <path
       style="fill:#09bc8a;stroke-width:1.34918;fill-opacity:1"
       d="M 640.18701,416.72074 490.42777,246.84246 451.30148,227.15225 C 429.78203,216.32263 327.48028,164.92592 223.96426,112.93733 120.44825,60.948744 32.211979,16.467003 27.883658,14.089019 L 20.013984,9.7654109 75.77963,8.8752248 c 47.40845,-0.7567803 716.86498,-3.5564692 716.86498,-2.9979526 0,116.0324478 -1.67033,579.7531878 -2.08971,580.1483078 -0.33476,0.3154 -68.00031,-75.87178 -150.36789,-169.30484 z"
       id="path2805"
       transform="scale(0.26458333)" />
    <path
       style="fill:#508991;fill-opacity:1;stroke-width:1.34918"
       d="M 2.8897985,1045.279 C 1.4639142,931.33332 -0.95851605,538.15794 -0.23910587,537.43853 0.69117112,536.50825 17.427105,551.06855 307.89305,805.51419 l 40.75497,35.70098 218.33766,136.94201 218.33765,136.94202 -217.26797,0.8163 c -119.49737,0.449 -295.34264,0.9043 -390.76725,1.0119 L 3.7888335,1117.123 Z"
       id="path3333"
       transform="scale(0.26458333)" />
    <path
       style="fill:#508991;fill-opacity:1;stroke-width:1.34918"
       d="M 4.16758,1086.7664 C 3.0693382,1047.6162 0.66693657,728.86772 0.67121996,622.8725 c 0.002073,-51.30677 0.49016064,-83.2513 1.26778854,-82.97471 1.859136,0.66126 58.4257305,49.8367 210.5572015,183.0452 L 348.08904,841.67001 564.97239,977.71 l 216.88333,136.04 -115.02007,0.935 c -63.26105,0.5142 -238.05353,1.1213 -388.42775,1.3492 l -273.4076795,0.4142 z"
       id="path3483"
       transform="scale(0.26458333)" />
    <path
       style="fill:#508991;fill-opacity:1;stroke-width:1.34918"
       d="M 571.18885,975.69055 350.40769,837.16763 175.97177,684.03543 C 80.032026,599.81273 0.97484885,530.5245 0.28916336,530.06159 -0.47310724,529.54697 -0.36781813,472.9278 0.56012896,384.3499 2.937639,157.40287 4.7737663,10.292103 5.2345923,9.8312767 5.4669238,9.5989454 8.0269774,10.390718 10.923601,11.590771 17.01245,14.113344 322.92096,167.14475 421.08843,216.77663 l 66.25348,33.49669 151.81211,171.95601 151.8121,171.95603 0.93097,210.53716 c 0.51205,115.79544 0.73793,232.80178 0.50195,260.01408 l -0.42902,49.4769 z"
       id="path3522"
       transform="scale(0.26458333)" />
    <path
       style="fill:#508991;fill-opacity:1;stroke-width:1.34918"
       d="M 4.1686798,1088.1155 C 3.0592061,1050.1902 0.66324345,733.47115 0.66955412,625.57087 0.67272672,571.32634 1.152496,539.61453 1.9657055,539.89779 3.8996813,540.57144 49.938312,580.57676 206.42489,717.56282 l 141.66415,124.01072 216.96945,136.08823 216.96944,136.08823 -114.43158,0.9363 c -62.93739,0.515 -237.76922,1.1221 -388.51521,1.3492 l -274.0836072,0.4129 z"
       id="path3635"
       transform="scale(0.26458333)" />
    <path
       style="fill:#508991;fill-opacity:1;stroke-width:1.34918"
       d="M 4.1731878,1090.9636 C 3.0564943,1056.2601 0.66139534,740.49684 0.66871709,628.94382 0.67248427,571.54784 1.1453006,539.60937 1.9869523,539.89779 3.9215432,540.56075 32.731313,565.57444 199.04859,710.99392 L 349.5266,842.56435 565.84121,978.15718 782.1558,1113.75 l -112.47175,0.8766 c -61.85947,0.4822 -236.71887,1.1567 -388.57646,1.4989 l -276.104717,0.6222 z"
       id="path3674"
       transform="scale(0.26458333)" />
    <path
       style="fill:#508991;fill-opacity:1;stroke-width:1.34918"
       d="M 4.1635977,1092.2969 C 3.0193429,1058.8351 0.67001433,750.65103 0.67253473,634.34055 0.67384978,573.66005 1.1461826,539.6102 1.9826265,539.89779 4.0421294,540.60589 36.624246,568.88358 197.95419,709.97957 l 150.76369,131.85496 216.79537,135.95773 216.79538,135.95774 -97.70716,0.8799 c -53.73894,0.4839 -228.63369,1.1513 -388.655,1.483 L 4.9986293,1116.716 Z"
       id="path3713"
       transform="scale(0.26458333)" />
    <path
       style="fill:#004346;fill-opacity:1;stroke-width:1.34918"
       d="M 4.1318904,1095.1765 C 1.8969793,1039.2691 -0.28615496,539.67293 1.704452,539.67293 c 1.4193349,0 20.789365,16.80098 196.332998,170.29331 l 150.81606,131.871 216.7958,135.95637 216.7958,135.95639 -95.75163,0.8523 c -52.6634,0.4688 -227.58687,1.2177 -388.71884,1.6643 l -292.9672131,0.8119 z"
       id="path3939"
       transform="scale(0.26458333)" />
  </g>
</svg>
